<?xml version="1.0" encoding="UTF-8" standalone="no"?>
<!DOCTYPE svg PUBLIC "-//W3C//DTD SVG 1.1//EN"
 "http://www.w3.org/Graphics/SVG/1.1/DTD/svg11.dtd">
<!-- Generated by graphviz version 12.0.0 (20240704.0754)
 -->
<!-- Title: static_libs Pages: 1 -->
<svg width="918pt" height="300pt"
 viewBox="0.00 0.00 917.70 299.74" xmlns="http://www.w3.org/2000/svg" xmlns:xlink="http://www.w3.org/1999/xlink">
<g id="graph0" class="graph" transform="scale(1 1) rotate(0) translate(4 295.74)">
<title>static_libs</title>
<polygon fill="white" stroke="none" points="-4,4 -4,-295.74 913.7,-295.74 913.7,4 -4,4"/>
<g id="clust1" class="cluster">
<title>clusterLegend</title>
<polygon fill="none" stroke="black" points="8,-8 8,-283.74 544,-283.74 544,-8 8,-8"/>
<text text-anchor="middle" x="276" y="-266.44" font-family="Times,serif" font-size="14.00">Legend</text>
</g>
<!-- legendNode0 -->
<g id="node1" class="node">
<title>legendNode0</title>
<polygon fill="none" stroke="black" points="288.29,-215.29 291.14,-215.39 293.95,-215.54 296.72,-215.73 299.44,-215.98 302.1,-216.27 304.68,-216.6 307.18,-216.99 309.59,-217.42 311.89,-217.89 314.09,-218.4 316.17,-218.95 318.12,-219.55 319.94,-220.18 321.62,-220.85 323.17,-221.55 324.57,-222.28 325.82,-223.04 326.92,-223.83 327.87,-224.65 328.66,-225.49 329.31,-226.35 329.8,-227.23 330.15,-228.13 330.34,-229.04 330.4,-229.96 330.31,-230.89 330.08,-231.83 329.73,-232.77 329.24,-233.71 328.64,-234.65 327.92,-235.59 327.08,-236.52 326.14,-237.44 325.11,-238.35 323.98,-239.25 322.77,-240.13 321.48,-240.99 320.11,-241.83 318.68,-242.65 317.18,-243.44 315.63,-244.2 314.03,-244.93 312.39,-245.63 310.7,-246.3 308.98,-246.93 307.23,-247.53 305.46,-248.08 303.65,-248.59 301.83,-249.06 300,-249.49 298.14,-249.88 296.28,-250.21 294.4,-250.5 292.52,-250.75 290.63,-250.94 288.74,-251.09 286.85,-251.19 284.95,-251.24 283.05,-251.24 281.15,-251.19 279.26,-251.09 277.37,-250.94 275.48,-250.75 273.6,-250.5 271.72,-250.21 269.86,-249.88 268,-249.49 266.17,-249.06 264.35,-248.59 262.54,-248.08 260.77,-247.53 259.02,-246.93 257.3,-246.3 255.61,-245.63 253.97,-244.93 252.37,-244.2 250.82,-243.44 249.32,-242.65 247.89,-241.83 246.52,-240.99 245.23,-240.13 244.02,-239.25 242.89,-238.35 241.86,-237.44 240.92,-236.52 240.08,-235.59 239.36,-234.65 238.76,-233.71 238.27,-232.77 237.92,-231.83 237.69,-230.89 237.6,-229.96 237.66,-229.04 237.85,-228.13 238.2,-227.23 238.69,-226.35 239.34,-225.49 240.13,-224.65 241.08,-223.83 242.18,-223.04 243.43,-222.28 244.83,-221.55 246.38,-220.85 248.06,-220.18 249.88,-219.55 251.83,-218.95 253.91,-218.4 256.11,-217.89 258.41,-217.42 260.82,-216.99 263.32,-216.6 265.9,-216.27 268.56,-215.98 271.28,-215.73 274.05,-215.54 276.86,-215.39 279.71,-215.29 282.57,-215.24 285.43,-215.24 288.29,-215.29"/>
<text text-anchor="middle" x="284" y="-228.97" font-family="Times,serif" font-size="12.00">Executable</text>
</g>
<!-- legendNode1 -->
<g id="node2" class="node">
<title>legendNode1</title>
<polygon fill="none" stroke="black" points="126.42,-128.95 126.42,-143.86 93.96,-154.4 48.04,-154.4 15.58,-143.86 15.58,-128.95 48.04,-118.4 93.96,-118.4 126.42,-128.95"/>
<text text-anchor="middle" x="71" y="-132.13" font-family="Times,serif" font-size="12.00">Static Library</text>
</g>
<!-- legendNode0&#45;&gt;legendNode1 -->
<g id="edge1" class="edge">
<title>legendNode0&#45;&gt;legendNode1</title>
<path fill="none" stroke="black" d="M251.26,-218.69C220.95,-206.02 174.7,-186.4 135,-168.3 127.44,-164.86 119.42,-161.08 111.71,-157.4"/>
<polygon fill="black" stroke="black" points="113.36,-154.3 102.83,-153.11 110.32,-160.61 113.36,-154.3"/>
</g>
<!-- legendNode2 -->
<g id="node3" class="node">
<title>legendNode2</title>
<polygon fill="none" stroke="black" points="268.07,-128.95 268.07,-143.86 232.88,-154.4 183.12,-154.4 147.93,-143.86 147.93,-128.95 183.12,-118.4 232.88,-118.4 268.07,-128.95"/>
<polygon fill="none" stroke="black" points="272.07,-125.97 272.07,-146.84 233.47,-158.4 182.53,-158.4 143.93,-146.84 143.93,-125.97 182.53,-114.4 233.47,-114.4 272.07,-125.97"/>
<text text-anchor="middle" x="208" y="-132.13" font-family="Times,serif" font-size="12.00">Shared Library</text>
</g>
<!-- legendNode0&#45;&gt;legendNode2 -->
<g id="edge2" class="edge">
<title>legendNode0&#45;&gt;legendNode2</title>
<path fill="none" stroke="black" d="M270.76,-215.72C260.17,-202.5 245.03,-183.6 232.27,-167.69"/>
<polygon fill="black" stroke="black" points="235.02,-165.52 226.03,-159.9 229.55,-169.9 235.02,-165.52"/>
</g>
<!-- legendNode3 -->
<g id="node4" class="node">
<title>legendNode3</title>
<polygon fill="none" stroke="black" points="423.65,-128.95 423.65,-143.86 386.95,-154.4 335.05,-154.4 298.35,-143.86 298.35,-128.95 335.05,-118.4 386.95,-118.4 423.65,-128.95"/>
<polygon fill="none" stroke="black" points="427.65,-125.93 427.65,-146.87 387.51,-158.4 334.49,-158.4 294.35,-146.87 294.35,-125.93 334.49,-114.4 387.51,-114.4 427.65,-125.93"/>
<polygon fill="none" stroke="black" points="431.65,-122.92 431.65,-149.88 388.08,-162.4 333.92,-162.4 290.35,-149.88 290.35,-122.92 333.92,-110.4 388.08,-110.4 431.65,-122.92"/>
<text text-anchor="middle" x="361" y="-132.13" font-family="Times,serif" font-size="12.00">Module Library</text>
</g>
<!-- legendNode0&#45;&gt;legendNode3 -->
<!-- legendNode7 -->
<g id="node8" class="node">
<title>legendNode7</title>
<polygon fill="none" stroke="black" points="535.88,-154.4 450.12,-154.4 450.12,-118.4 535.88,-118.4 535.88,-154.4"/>
<text text-anchor="middle" x="493" y="-132.13" font-family="Times,serif" font-size="12.00">Custom Target</text>
</g>
<!-- legendNode0&#45;&gt;legendNode7 -->
<!-- legendNode4 -->
<g id="node5" class="node">
<title>legendNode4</title>
<polygon fill="none" stroke="black" points="166.08,-39.56 91,-52 15.92,-39.56 44.6,-19.44 137.4,-19.44 166.08,-39.56"/>
<text text-anchor="middle" x="91" y="-29.73" font-family="Times,serif" font-size="12.00">Interface Library</text>
</g>
<!-- legendNode1&#45;&gt;legendNode4 -->
<g id="edge4" class="edge">
<title>legendNode1&#45;&gt;legendNode4</title>
<path fill="none" stroke="black" stroke-dasharray="5,2" d="M74.48,-117.91C77.52,-102.69 81.97,-80.34 85.48,-62.69"/>
<polygon fill="black" stroke="black" points="88.87,-63.6 87.39,-53.11 82.01,-62.23 88.87,-63.6"/>
<text text-anchor="middle" x="107" y="-73.2" font-family="Times,serif" font-size="14.00">Interface</text>
</g>
<!-- legendNode5 -->
<g id="node6" class="node">
<title>legendNode5</title>
<polygon fill="none" stroke="black" points="309.98,-34 278.49,-52 215.51,-52 184.02,-34 215.51,-16 278.49,-16 309.98,-34"/>
<text text-anchor="middle" x="247" y="-29.73" font-family="Times,serif" font-size="12.00">Object Library</text>
</g>
<!-- legendNode2&#45;&gt;legendNode5 -->
<g id="edge5" class="edge">
<title>legendNode2&#45;&gt;legendNode5</title>
<path fill="none" stroke="black" stroke-dasharray="1,5" d="M216.27,-114.11C222.08,-99.14 229.92,-78.98 236.22,-62.75"/>
<polygon fill="black" stroke="black" points="239.39,-64.26 239.75,-53.67 232.86,-61.72 239.39,-64.26"/>
<text text-anchor="middle" x="252.12" y="-73.2" font-family="Times,serif" font-size="14.00">Private</text>
</g>
<!-- legendNode6 -->
<g id="node7" class="node">
<title>legendNode6</title>
<polygon fill="none" stroke="black" points="472.18,-29.99 457.89,-45.22 400,-52 342.11,-45.22 327.82,-29.99 367.88,-17.78 432.12,-17.78 472.18,-29.99"/>
<text text-anchor="middle" x="400" y="-29.73" font-family="Times,serif" font-size="12.00">Unknown Library</text>
</g>
<!-- legendNode3&#45;&gt;legendNode6 -->
<g id="edge6" class="edge">
<title>legendNode3&#45;&gt;legendNode6</title>
<path fill="none" stroke="black" d="M370.84,-110.07C376.52,-95.44 383.67,-77.04 389.47,-62.12"/>
<polygon fill="black" stroke="black" points="392.68,-63.51 393.04,-52.92 386.16,-60.97 392.68,-63.51"/>
</g>
<!-- node0 -->
<g id="node9" class="node">
<title>node0</title>
<polygon fill="none" stroke="black" points="666.02,-221.67 666.02,-244.81 632.62,-261.18 585.38,-261.18 551.98,-244.81 551.98,-221.67 585.38,-205.3 632.62,-205.3 666.02,-221.67"/>
<text text-anchor="middle" x="609" y="-236.09" font-family="Times,serif" font-size="12.00">CMSISDSP</text>
<text text-anchor="middle" x="609" y="-221.84" font-family="Times,serif" font-size="12.00">(cmsis&#45;dsp)</text>
</g>
<!-- node1 -->
<g id="node10" class="node">
<title>node1</title>
<polygon fill="none" stroke="black" points="906.69,-146.26 797,-168.3 687.31,-146.26 729.21,-110.59 864.79,-110.59 906.69,-146.26"/>
<text text-anchor="middle" x="797" y="-139.25" font-family="Times,serif" font-size="12.00">cmsis_v6</text>
<text text-anchor="middle" x="797" y="-125" font-family="Times,serif" font-size="12.00">(cmsis_v6::framework)</text>
</g>
<!-- node2 -->
<g id="node11" class="node">
<title>node2</title>
<polygon fill="none" stroke="black" points="909.7,-221.67 909.7,-244.81 843.68,-261.18 750.32,-261.18 684.3,-244.81 684.3,-221.67 750.32,-205.3 843.68,-205.3 909.7,-221.67"/>
<text text-anchor="middle" x="797" y="-236.09" font-family="Times,serif" font-size="12.00">stm32cubemx</text>
<text text-anchor="middle" x="797" y="-221.84" font-family="Times,serif" font-size="12.00">(stm32cubemx::framework)</text>
</g>
<!-- node2&#45;&gt;node1 -->
<g id="edge8" class="edge">
<title>node2&#45;&gt;node1</title>
<path fill="none" stroke="black" d="M797,-204.81C797,-197.06 797,-188.44 797,-180.03"/>
<polygon fill="black" stroke="black" points="800.5,-180.29 797,-170.29 793.5,-180.29 800.5,-180.29"/>
</g>
</g>
</svg>
