<?xml version="1.0" encoding="UTF-8" standalone="no"?>
<!DOCTYPE svg PUBLIC "-//W3C//DTD SVG 1.1//EN"
 "http://www.w3.org/Graphics/SVG/1.1/DTD/svg11.dtd">
<!-- Generated by graphviz version 11.0.0 (20240428.1522)
 -->
<!-- Title: static_libs Pages: 1 -->
<svg width="1192pt" height="303pt"
 viewBox="0.00 0.00 1191.78 302.71" xmlns="http://www.w3.org/2000/svg" xmlns:xlink="http://www.w3.org/1999/xlink">
<g id="graph0" class="graph" transform="scale(1 1) rotate(0) translate(4 298.71)">
<title>static_libs</title>
<polygon fill="white" stroke="none" points="-4,4 -4,-298.71 1187.78,-298.71 1187.78,4 -4,4"/>
<g id="clust1" class="cluster">
<title>clusterLegend</title>
<polygon fill="none" stroke="black" points="8,-8 8,-286.71 544,-286.71 544,-8 8,-8"/>
<text text-anchor="middle" x="276" y="-269.41" font-family="Times,serif" font-size="14.00">Legend</text>
</g>
<!-- legendNode0 -->
<g id="node1" class="node">
<title>legendNode0</title>
<polygon fill="none" stroke="black" points="255.29,-218.26 258.14,-218.35 260.95,-218.5 263.72,-218.7 266.44,-218.94 269.1,-219.23 271.68,-219.57 274.18,-219.95 276.59,-220.38 278.89,-220.85 281.09,-221.37 283.17,-221.92 285.12,-222.51 286.94,-223.15 288.62,-223.81 290.17,-224.51 291.57,-225.25 292.82,-226.01 293.92,-226.8 294.87,-227.61 295.66,-228.45 296.31,-229.32 296.8,-230.2 297.15,-231.09 297.34,-232 297.4,-232.93 297.31,-233.86 297.08,-234.79 296.73,-235.74 296.24,-236.68 295.64,-237.62 294.92,-238.56 294.08,-239.49 293.14,-240.41 292.11,-241.32 290.98,-242.22 289.77,-243.1 288.48,-243.96 287.11,-244.8 285.68,-245.61 284.18,-246.41 282.63,-247.17 281.03,-247.9 279.39,-248.6 277.7,-249.27 275.98,-249.9 274.23,-250.49 272.46,-251.05 270.65,-251.56 268.83,-252.03 267,-252.46 265.14,-252.84 263.28,-253.18 261.4,-253.47 259.52,-253.72 257.63,-253.91 255.74,-254.06 253.85,-254.16 251.95,-254.21 250.05,-254.21 248.15,-254.16 246.26,-254.06 244.37,-253.91 242.48,-253.72 240.6,-253.47 238.72,-253.18 236.86,-252.84 235,-252.46 233.17,-252.03 231.35,-251.56 229.54,-251.05 227.77,-250.49 226.02,-249.9 224.3,-249.27 222.61,-248.6 220.97,-247.9 219.37,-247.17 217.82,-246.41 216.32,-245.61 214.89,-244.8 213.52,-243.96 212.23,-243.1 211.02,-242.22 209.89,-241.32 208.86,-240.41 207.92,-239.49 207.08,-238.56 206.36,-237.62 205.76,-236.68 205.27,-235.74 204.92,-234.79 204.69,-233.86 204.6,-232.93 204.66,-232 204.85,-231.09 205.2,-230.2 205.69,-229.32 206.34,-228.45 207.13,-227.61 208.08,-226.8 209.18,-226.01 210.43,-225.25 211.83,-224.51 213.38,-223.81 215.06,-223.15 216.88,-222.51 218.83,-221.92 220.91,-221.37 223.11,-220.85 225.41,-220.38 227.82,-219.95 230.32,-219.57 232.9,-219.23 235.56,-218.94 238.28,-218.7 241.05,-218.5 243.86,-218.35 246.71,-218.26 249.57,-218.21 252.43,-218.21 255.29,-218.26"/>
<text text-anchor="middle" x="251" y="-231.93" font-family="Times,serif" font-size="12.00">Executable</text>
</g>
<!-- legendNode1 -->
<g id="node2" class="node">
<title>legendNode1</title>
<polygon fill="none" stroke="black" points="126.42,-128.95 126.42,-143.86 93.96,-154.4 48.04,-154.4 15.58,-143.86 15.58,-128.95 48.04,-118.4 93.96,-118.4 126.42,-128.95"/>
<text text-anchor="middle" x="71" y="-132.13" font-family="Times,serif" font-size="12.00">Static Library</text>
</g>
<!-- legendNode0&#45;&gt;legendNode1 -->
<g id="edge1" class="edge">
<title>legendNode0&#45;&gt;legendNode1</title>
<path fill="none" stroke="black" d="M223.66,-220.35C193.14,-203.77 143.52,-176.81 109.18,-158.15"/>
<polygon fill="black" stroke="black" points="111.28,-155.3 100.82,-153.6 107.93,-161.45 111.28,-155.3"/>
</g>
<!-- legendNode2 -->
<g id="node3" class="node">
<title>legendNode2</title>
<polygon fill="none" stroke="black" points="268.07,-128.95 268.07,-143.86 232.88,-154.4 183.12,-154.4 147.93,-143.86 147.93,-128.95 183.12,-118.4 232.88,-118.4 268.07,-128.95"/>
<polygon fill="none" stroke="black" points="272.07,-125.97 272.07,-146.84 233.47,-158.4 182.53,-158.4 143.93,-146.84 143.93,-125.97 182.53,-114.4 233.47,-114.4 272.07,-125.97"/>
<text text-anchor="middle" x="208" y="-132.13" font-family="Times,serif" font-size="12.00">Shared Library</text>
</g>
<!-- legendNode0&#45;&gt;legendNode2 -->
<g id="edge2" class="edge">
<title>legendNode0&#45;&gt;legendNode2</title>
<path fill="none" stroke="black" d="M243.51,-218.17C237.55,-204.61 229.04,-185.26 221.85,-168.91"/>
<polygon fill="black" stroke="black" points="225.19,-167.81 217.96,-160.06 218.78,-170.63 225.19,-167.81"/>
</g>
<!-- legendNode3 -->
<g id="node4" class="node">
<title>legendNode3</title>
<polygon fill="none" stroke="black" points="423.65,-128.95 423.65,-143.86 386.95,-154.4 335.05,-154.4 298.35,-143.86 298.35,-128.95 335.05,-118.4 386.95,-118.4 423.65,-128.95"/>
<polygon fill="none" stroke="black" points="427.65,-125.93 427.65,-146.87 387.51,-158.4 334.49,-158.4 294.35,-146.87 294.35,-125.93 334.49,-114.4 387.51,-114.4 427.65,-125.93"/>
<polygon fill="none" stroke="black" points="431.65,-122.92 431.65,-149.88 388.08,-162.4 333.92,-162.4 290.35,-149.88 290.35,-122.92 333.92,-110.4 388.08,-110.4 431.65,-122.92"/>
<text text-anchor="middle" x="361" y="-132.13" font-family="Times,serif" font-size="12.00">Module Library</text>
</g>
<!-- legendNode0&#45;&gt;legendNode3 -->
<!-- legendNode7 -->
<g id="node8" class="node">
<title>legendNode7</title>
<polygon fill="none" stroke="black" points="535.88,-154.4 450.12,-154.4 450.12,-118.4 535.88,-118.4 535.88,-154.4"/>
<text text-anchor="middle" x="493" y="-132.13" font-family="Times,serif" font-size="12.00">Custom Target</text>
</g>
<!-- legendNode0&#45;&gt;legendNode7 -->
<!-- legendNode4 -->
<g id="node5" class="node">
<title>legendNode4</title>
<polygon fill="none" stroke="black" points="166.08,-39.56 91,-52 15.92,-39.56 44.6,-19.44 137.4,-19.44 166.08,-39.56"/>
<text text-anchor="middle" x="91" y="-29.73" font-family="Times,serif" font-size="12.00">Interface Library</text>
</g>
<!-- legendNode1&#45;&gt;legendNode4 -->
<g id="edge4" class="edge">
<title>legendNode1&#45;&gt;legendNode4</title>
<path fill="none" stroke="black" stroke-dasharray="5,2" d="M74.48,-117.91C77.52,-102.69 81.97,-80.34 85.48,-62.69"/>
<polygon fill="black" stroke="black" points="88.87,-63.6 87.39,-53.11 82.01,-62.23 88.87,-63.6"/>
<text text-anchor="middle" x="107" y="-73.2" font-family="Times,serif" font-size="14.00">Interface</text>
</g>
<!-- legendNode5 -->
<g id="node6" class="node">
<title>legendNode5</title>
<polygon fill="none" stroke="black" points="309.98,-34 278.49,-52 215.51,-52 184.02,-34 215.51,-16 278.49,-16 309.98,-34"/>
<text text-anchor="middle" x="247" y="-29.73" font-family="Times,serif" font-size="12.00">Object Library</text>
</g>
<!-- legendNode2&#45;&gt;legendNode5 -->
<g id="edge5" class="edge">
<title>legendNode2&#45;&gt;legendNode5</title>
<path fill="none" stroke="black" stroke-dasharray="1,5" d="M216.27,-114.11C222.08,-99.14 229.92,-78.98 236.22,-62.75"/>
<polygon fill="black" stroke="black" points="239.39,-64.26 239.75,-53.67 232.86,-61.72 239.39,-64.26"/>
<text text-anchor="middle" x="252.12" y="-73.2" font-family="Times,serif" font-size="14.00">Private</text>
</g>
<!-- legendNode6 -->
<g id="node7" class="node">
<title>legendNode6</title>
<polygon fill="none" stroke="black" points="472.18,-29.99 457.89,-45.22 400,-52 342.11,-45.22 327.82,-29.99 367.88,-17.78 432.12,-17.78 472.18,-29.99"/>
<text text-anchor="middle" x="400" y="-29.73" font-family="Times,serif" font-size="12.00">Unknown Library</text>
</g>
<!-- legendNode3&#45;&gt;legendNode6 -->
<g id="edge6" class="edge">
<title>legendNode3&#45;&gt;legendNode6</title>
<path fill="none" stroke="black" d="M370.84,-110.07C376.52,-95.44 383.67,-77.04 389.47,-62.12"/>
<polygon fill="black" stroke="black" points="392.68,-63.51 393.04,-52.92 386.16,-60.97 392.68,-63.51"/>
</g>
<!-- node0 -->
<g id="node9" class="node">
<title>node0</title>
<polygon fill="none" stroke="black" points="773.69,-146.26 664,-168.3 554.31,-146.26 596.21,-110.59 731.79,-110.59 773.69,-146.26"/>
<text text-anchor="middle" x="664" y="-139.25" font-family="Times,serif" font-size="12.00">cmsis_v5</text>
<text text-anchor="middle" x="664" y="-125" font-family="Times,serif" font-size="12.00">(cmsis_v5::framework)</text>
</g>
<!-- node1 -->
<g id="node10" class="node">
<title>node1</title>
<polygon fill="none" stroke="black" points="733.36,-228.75 733.36,-243.66 692.73,-254.21 635.27,-254.21 594.64,-243.66 594.64,-228.75 635.27,-218.21 692.73,-218.21 733.36,-228.75"/>
<text text-anchor="middle" x="664" y="-231.93" font-family="Times,serif" font-size="12.00">cmsis_v5_generic</text>
</g>
<!-- node1&#45;&gt;node0 -->
<g id="edge8" class="edge">
<title>node1&#45;&gt;node0</title>
<path fill="none" stroke="black" d="M664,-217.72C664,-207.18 664,-193.27 664,-179.98"/>
<polygon fill="black" stroke="black" points="667.5,-180.09 664,-170.09 660.5,-180.09 667.5,-180.09"/>
</g>
<!-- node2 -->
<g id="node11" class="node">
<title>node2</title>
<polygon fill="none" stroke="black" points="970.69,-246.06 861,-268.11 751.31,-246.06 793.21,-210.4 928.79,-210.4 970.69,-246.06"/>
<text text-anchor="middle" x="861" y="-239.06" font-family="Times,serif" font-size="12.00">cmsis_v6</text>
<text text-anchor="middle" x="861" y="-224.81" font-family="Times,serif" font-size="12.00">(cmsis_v6::framework)</text>
</g>
<!-- node3 -->
<g id="node12" class="node">
<title>node3</title>
<polygon fill="none" stroke="black" points="1183.78,-224.64 1183.78,-247.78 1126.5,-264.14 1045.5,-264.14 988.22,-247.78 988.22,-224.64 1045.5,-208.27 1126.5,-208.27 1183.78,-224.64"/>
<text text-anchor="middle" x="1086" y="-239.06" font-family="Times,serif" font-size="12.00">segger_rtt</text>
<text text-anchor="middle" x="1086" y="-224.81" font-family="Times,serif" font-size="12.00">(segger_rtt::framework)</text>
</g>
</g>
</svg>
