<?xml version="1.0" encoding="UTF-8" standalone="no"?>
<!DOCTYPE svg PUBLIC "-//W3C//DTD SVG 1.1//EN"
 "http://www.w3.org/Graphics/SVG/1.1/DTD/svg11.dtd">
<!-- Generated by graphviz version 12.0.0 (20240704.0754)
 -->
<!-- Title: static_libs Pages: 1 -->
<svg width="1524pt" height="304pt"
 viewBox="0.00 0.00 1523.78 303.71" xmlns="http://www.w3.org/2000/svg" xmlns:xlink="http://www.w3.org/1999/xlink">
<g id="graph0" class="graph" transform="scale(1 1) rotate(0) translate(4 299.71)">
<title>static_libs</title>
<polygon fill="white" stroke="none" points="-4,4 -4,-299.71 1519.78,-299.71 1519.78,4 -4,4"/>
<g id="clust1" class="cluster">
<title>clusterLegend</title>
<polygon fill="none" stroke="black" points="8,-8 8,-287.71 544,-287.71 544,-8 8,-8"/>
<text text-anchor="middle" x="276" y="-270.41" font-family="Times,serif" font-size="14.00">Legend</text>
</g>
<!-- legendNode0 -->
<g id="node1" class="node">
<title>legendNode0</title>
<polygon fill="none" stroke="black" points="288.29,-219.26 291.14,-219.35 293.95,-219.5 296.72,-219.7 299.44,-219.94 302.1,-220.23 304.68,-220.57 307.18,-220.95 309.59,-221.38 311.89,-221.85 314.09,-222.37 316.17,-222.92 318.12,-223.51 319.94,-224.15 321.62,-224.81 323.17,-225.51 324.57,-226.25 325.82,-227.01 326.92,-227.8 327.87,-228.61 328.66,-229.45 329.31,-230.32 329.8,-231.2 330.15,-232.09 330.34,-233 330.4,-233.93 330.31,-234.86 330.08,-235.79 329.73,-236.74 329.24,-237.68 328.64,-238.62 327.92,-239.56 327.08,-240.49 326.14,-241.41 325.11,-242.32 323.98,-243.22 322.77,-244.1 321.48,-244.96 320.11,-245.8 318.68,-246.61 317.18,-247.41 315.63,-248.17 314.03,-248.9 312.39,-249.6 310.7,-250.27 308.98,-250.9 307.23,-251.49 305.46,-252.05 303.65,-252.56 301.83,-253.03 300,-253.46 298.14,-253.84 296.28,-254.18 294.4,-254.47 292.52,-254.72 290.63,-254.91 288.74,-255.06 286.85,-255.16 284.95,-255.21 283.05,-255.21 281.15,-255.16 279.26,-255.06 277.37,-254.91 275.48,-254.72 273.6,-254.47 271.72,-254.18 269.86,-253.84 268,-253.46 266.17,-253.03 264.35,-252.56 262.54,-252.05 260.77,-251.49 259.02,-250.9 257.3,-250.27 255.61,-249.6 253.97,-248.9 252.37,-248.17 250.82,-247.41 249.32,-246.61 247.89,-245.8 246.52,-244.96 245.23,-244.1 244.02,-243.22 242.89,-242.32 241.86,-241.41 240.92,-240.49 240.08,-239.56 239.36,-238.62 238.76,-237.68 238.27,-236.74 237.92,-235.79 237.69,-234.86 237.6,-233.93 237.66,-233 237.85,-232.09 238.2,-231.2 238.69,-230.32 239.34,-229.45 240.13,-228.61 241.08,-227.8 242.18,-227.01 243.43,-226.25 244.83,-225.51 246.38,-224.81 248.06,-224.15 249.88,-223.51 251.83,-222.92 253.91,-222.37 256.11,-221.85 258.41,-221.38 260.82,-220.95 263.32,-220.57 265.9,-220.23 268.56,-219.94 271.28,-219.7 274.05,-219.5 276.86,-219.35 279.71,-219.26 282.57,-219.21 285.43,-219.21 288.29,-219.26"/>
<text text-anchor="middle" x="284" y="-232.93" font-family="Times,serif" font-size="12.00">Executable</text>
</g>
<!-- legendNode1 -->
<g id="node2" class="node">
<title>legendNode1</title>
<polygon fill="none" stroke="black" points="126.42,-128.95 126.42,-143.86 93.96,-154.4 48.04,-154.4 15.58,-143.86 15.58,-128.95 48.04,-118.4 93.96,-118.4 126.42,-128.95"/>
<text text-anchor="middle" x="71" y="-132.13" font-family="Times,serif" font-size="12.00">Static Library</text>
</g>
<!-- legendNode0&#45;&gt;legendNode1 -->
<g id="edge1" class="edge">
<title>legendNode0&#45;&gt;legendNode1</title>
<path fill="none" stroke="black" d="M252.8,-222.23C222.59,-208.64 175.53,-187.32 135,-168.3 127.47,-164.77 119.48,-160.96 111.78,-157.26"/>
<polygon fill="black" stroke="black" points="113.43,-154.17 102.9,-152.97 110.38,-160.47 113.43,-154.17"/>
</g>
<!-- legendNode2 -->
<g id="node3" class="node">
<title>legendNode2</title>
<polygon fill="none" stroke="black" points="268.07,-128.95 268.07,-143.86 232.88,-154.4 183.12,-154.4 147.93,-143.86 147.93,-128.95 183.12,-118.4 232.88,-118.4 268.07,-128.95"/>
<polygon fill="none" stroke="black" points="272.07,-125.97 272.07,-146.84 233.47,-158.4 182.53,-158.4 143.93,-146.84 143.93,-125.97 182.53,-114.4 233.47,-114.4 272.07,-125.97"/>
<text text-anchor="middle" x="208" y="-132.13" font-family="Times,serif" font-size="12.00">Shared Library</text>
</g>
<!-- legendNode0&#45;&gt;legendNode2 -->
<g id="edge2" class="edge">
<title>legendNode0&#45;&gt;legendNode2</title>
<path fill="none" stroke="black" d="M271.11,-219.45C260.24,-205.32 244.43,-184.76 231.35,-167.75"/>
<polygon fill="black" stroke="black" points="234.2,-165.73 225.33,-159.93 228.65,-169.99 234.2,-165.73"/>
</g>
<!-- legendNode3 -->
<g id="node4" class="node">
<title>legendNode3</title>
<polygon fill="none" stroke="black" points="423.65,-128.95 423.65,-143.86 386.95,-154.4 335.05,-154.4 298.35,-143.86 298.35,-128.95 335.05,-118.4 386.95,-118.4 423.65,-128.95"/>
<polygon fill="none" stroke="black" points="427.65,-125.93 427.65,-146.87 387.51,-158.4 334.49,-158.4 294.35,-146.87 294.35,-125.93 334.49,-114.4 387.51,-114.4 427.65,-125.93"/>
<polygon fill="none" stroke="black" points="431.65,-122.92 431.65,-149.88 388.08,-162.4 333.92,-162.4 290.35,-149.88 290.35,-122.92 333.92,-110.4 388.08,-110.4 431.65,-122.92"/>
<text text-anchor="middle" x="361" y="-132.13" font-family="Times,serif" font-size="12.00">Module Library</text>
</g>
<!-- legendNode0&#45;&gt;legendNode3 -->
<!-- legendNode7 -->
<g id="node8" class="node">
<title>legendNode7</title>
<polygon fill="none" stroke="black" points="535.88,-154.4 450.12,-154.4 450.12,-118.4 535.88,-118.4 535.88,-154.4"/>
<text text-anchor="middle" x="493" y="-132.13" font-family="Times,serif" font-size="12.00">Custom Target</text>
</g>
<!-- legendNode0&#45;&gt;legendNode7 -->
<!-- legendNode4 -->
<g id="node5" class="node">
<title>legendNode4</title>
<polygon fill="none" stroke="black" points="166.08,-39.56 91,-52 15.92,-39.56 44.6,-19.44 137.4,-19.44 166.08,-39.56"/>
<text text-anchor="middle" x="91" y="-29.73" font-family="Times,serif" font-size="12.00">Interface Library</text>
</g>
<!-- legendNode1&#45;&gt;legendNode4 -->
<g id="edge4" class="edge">
<title>legendNode1&#45;&gt;legendNode4</title>
<path fill="none" stroke="black" stroke-dasharray="5,2" d="M74.48,-117.91C77.52,-102.69 81.97,-80.34 85.48,-62.69"/>
<polygon fill="black" stroke="black" points="88.87,-63.6 87.39,-53.11 82.01,-62.23 88.87,-63.6"/>
<text text-anchor="middle" x="107" y="-73.2" font-family="Times,serif" font-size="14.00">Interface</text>
</g>
<!-- legendNode5 -->
<g id="node6" class="node">
<title>legendNode5</title>
<polygon fill="none" stroke="black" points="309.98,-34 278.49,-52 215.51,-52 184.02,-34 215.51,-16 278.49,-16 309.98,-34"/>
<text text-anchor="middle" x="247" y="-29.73" font-family="Times,serif" font-size="12.00">Object Library</text>
</g>
<!-- legendNode2&#45;&gt;legendNode5 -->
<g id="edge5" class="edge">
<title>legendNode2&#45;&gt;legendNode5</title>
<path fill="none" stroke="black" stroke-dasharray="1,5" d="M216.27,-114.11C222.08,-99.14 229.92,-78.98 236.22,-62.75"/>
<polygon fill="black" stroke="black" points="239.39,-64.26 239.75,-53.67 232.86,-61.72 239.39,-64.26"/>
<text text-anchor="middle" x="252.12" y="-73.2" font-family="Times,serif" font-size="14.00">Private</text>
</g>
<!-- legendNode6 -->
<g id="node7" class="node">
<title>legendNode6</title>
<polygon fill="none" stroke="black" points="472.18,-29.99 457.89,-45.22 400,-52 342.11,-45.22 327.82,-29.99 367.88,-17.78 432.12,-17.78 472.18,-29.99"/>
<text text-anchor="middle" x="400" y="-29.73" font-family="Times,serif" font-size="12.00">Unknown Library</text>
</g>
<!-- legendNode3&#45;&gt;legendNode6 -->
<g id="edge6" class="edge">
<title>legendNode3&#45;&gt;legendNode6</title>
<path fill="none" stroke="black" d="M370.84,-110.07C376.52,-95.44 383.67,-77.04 389.47,-62.12"/>
<polygon fill="black" stroke="black" points="392.68,-63.51 393.04,-52.92 386.16,-60.97 392.68,-63.51"/>
</g>
<!-- node0 -->
<g id="node9" class="node">
<title>node0</title>
<polygon fill="none" stroke="black" points="666.02,-225.64 666.02,-248.78 632.62,-265.14 585.38,-265.14 551.98,-248.78 551.98,-225.64 585.38,-209.27 632.62,-209.27 666.02,-225.64"/>
<text text-anchor="middle" x="609" y="-240.06" font-family="Times,serif" font-size="12.00">CMSISDSP</text>
<text text-anchor="middle" x="609" y="-225.81" font-family="Times,serif" font-size="12.00">(cmsis&#45;dsp)</text>
</g>
<!-- node1 -->
<g id="node10" class="node">
<title>node1</title>
<polygon fill="none" stroke="black" points="962.69,-146.26 853,-168.3 743.31,-146.26 785.21,-110.59 920.79,-110.59 962.69,-146.26"/>
<text text-anchor="middle" x="853" y="-139.25" font-family="Times,serif" font-size="12.00">cmsis_v5</text>
<text text-anchor="middle" x="853" y="-125" font-family="Times,serif" font-size="12.00">(cmsis_v5::framework)</text>
</g>
<!-- node2 -->
<g id="node11" class="node">
<title>node2</title>
<polygon fill="none" stroke="black" points="822.36,-229.75 822.36,-244.66 781.73,-255.21 724.27,-255.21 683.64,-244.66 683.64,-229.75 724.27,-219.21 781.73,-219.21 822.36,-229.75"/>
<text text-anchor="middle" x="753" y="-232.93" font-family="Times,serif" font-size="12.00">cmsis_v5_generic</text>
</g>
<!-- node2&#45;&gt;node1 -->
<g id="edge8" class="edge">
<title>node2&#45;&gt;node1</title>
<path fill="none" stroke="black" d="M770.42,-219C783.79,-205.79 802.66,-187.14 818.99,-171.01"/>
<polygon fill="black" stroke="black" points="821.04,-173.9 825.69,-164.39 816.12,-168.92 821.04,-173.9"/>
</g>
<!-- node3 -->
<g id="node12" class="node">
<title>node3</title>
<polygon fill="none" stroke="black" points="1302.69,-247.06 1193,-269.11 1083.31,-247.06 1125.21,-211.4 1260.79,-211.4 1302.69,-247.06"/>
<text text-anchor="middle" x="1193" y="-240.06" font-family="Times,serif" font-size="12.00">cmsis_v6</text>
<text text-anchor="middle" x="1193" y="-225.81" font-family="Times,serif" font-size="12.00">(cmsis_v6::framework)</text>
</g>
<!-- node4 -->
<g id="node13" class="node">
<title>node4</title>
<polygon fill="none" stroke="black" points="1515.78,-225.64 1515.78,-248.78 1458.5,-265.14 1377.5,-265.14 1320.22,-248.78 1320.22,-225.64 1377.5,-209.27 1458.5,-209.27 1515.78,-225.64"/>
<text text-anchor="middle" x="1418" y="-240.06" font-family="Times,serif" font-size="12.00">segger_rtt</text>
<text text-anchor="middle" x="1418" y="-225.81" font-family="Times,serif" font-size="12.00">(segger_rtt::framework)</text>
</g>
<!-- node5 -->
<g id="node14" class="node">
<title>node5</title>
<polygon fill="none" stroke="black" points="1065.7,-225.64 1065.7,-248.78 999.68,-265.14 906.32,-265.14 840.3,-248.78 840.3,-225.64 906.32,-209.27 999.68,-209.27 1065.7,-225.64"/>
<text text-anchor="middle" x="953" y="-240.06" font-family="Times,serif" font-size="12.00">stm32cubemx</text>
<text text-anchor="middle" x="953" y="-225.81" font-family="Times,serif" font-size="12.00">(stm32cubemx::framework)</text>
</g>
<!-- node5&#45;&gt;node1 -->
<g id="edge9" class="edge">
<title>node5&#45;&gt;node1</title>
<path fill="none" stroke="black" d="M925.41,-208.95C913.55,-197.23 899.58,-183.42 887.08,-171.08"/>
<polygon fill="black" stroke="black" points="889.77,-168.82 880.2,-164.28 884.85,-173.8 889.77,-168.82"/>
</g>
</g>
</svg>
